<svg xmlns="http://www.w3.org/2000/svg" viewBox="0 0 256 256" role="img"><title>rombo</title><defs>
<linearGradient id="gold" x1="0" y1="0" x2=".7" y2="1"><stop stop-color="#fff3aa"/><stop offset=".22" stop-color="#ffc94e"/><stop offset=".49" stop-color="#c97d10"/><stop offset=".68" stop-color="#fff4b1"/><stop offset="1" stop-color="#bd7111"/></linearGradient>
<linearGradient id="turquoise" x1="0" y1="0" x2="1" y2="1"><stop stop-color="#85ffed"/><stop offset=".24" stop-color="#09c6d2"/><stop offset=".57" stop-color="#078ba9"/><stop offset=".78" stop-color="#71dfc1"/><stop offset="1" stop-color="#064955"/></linearGradient>
<linearGradient id="fuchsia" x1="0" y1="0" x2=".8" y2="1"><stop stop-color="#ffafdd"/><stop offset=".24" stop-color="#ff159a"/><stop offset=".62" stop-color="#d00065"/><stop offset=".84" stop-color="#ff7c8b"/><stop offset="1" stop-color="#960055"/></linearGradient>
<linearGradient id="orange" x1="0" y1="0" x2="1" y2="1"><stop stop-color="#ffdd64"/><stop offset=".3" stop-color="#ff891f"/><stop offset=".65" stop-color="#f44619"/><stop offset="1" stop-color="#ffb93b"/></linearGradient>
<radialGradient id="orb" cx=".32" cy=".24" r=".8"><stop stop-color="#c9fff5"/><stop offset=".32" stop-color="#0dd3d2"/><stop offset=".72" stop-color="#008899"/><stop offset="1" stop-color="#053f54"/></radialGradient>
</defs><path d="M128 24L224 120L128 216L32 120Z" transform="translate(0 4)" fill="#794510" stroke="#794510" stroke-width="5" stroke-linejoin="miter"/><path d="M128 24L224 120L128 216L32 120Z" fill="url(#turquoise)" stroke="url(#gold)" stroke-width="3" stroke-linejoin="miter"/><path d="M128 56L192 120L128 184L64 120Z" transform="translate(0 4)" fill="#794510" stroke="#794510" stroke-width="5" stroke-linejoin="miter"/><path d="M128 56L192 120L128 184L64 120Z" fill="url(#fuchsia)" stroke="url(#gold)" stroke-width="3" stroke-linejoin="miter"/><path d="M128 88L160 120L128 152L96 120Z" transform="translate(0 4)" fill="#794510" stroke="#794510" stroke-width="5" stroke-linejoin="miter"/><path d="M128 88L160 120L128 152L96 120Z" fill="url(#orange)" stroke="url(#gold)" stroke-width="3" stroke-linejoin="miter"/></svg>